<?xml version="1.0" encoding="UTF-8" standalone="no"?><svg xmlns:svg="http://www.w3.org/2000/svg" xmlns="http://www.w3.org/2000/svg" version="1.1" style="overflow:visible" viewBox="-250 -250 500 500" height="500px" width="500px"><rect fill-opacity="0" fill="rgb(0,0,0)" height="500" width="500" y="-250" x="-250" /><svg version="1.1" y="-250" x="-250" viewBox="-250 -250 500 500" height="500px" width="500px" style="overflow:visible"><g transform="rotate(0,0,0)" stroke-linejoin="round" fill="#fff"><path stroke-linecap="butt" stroke-linejoin="round" stroke-width="6" stroke-opacity="1" stroke="rgb(68,68,68)" fill="rgb(45,41,41)" d="m100.576 32.492998l94.8754 9.93591c-8.87907 40.8562-30.3236 77.9085-61.3262 105.96z" /><path stroke-linecap="butt" stroke-linejoin="round" stroke-width="6" stroke-opacity="1" stroke="rgb(68,68,68)" fill="rgb(45,41,41)" d="m-100.576 32.491999l-94.8754 9.93594c8.87907 40.8562 30.3237 77.9085 61.3262 105.96z" /><path stroke-linecap="butt" stroke-linejoin="round" stroke-width="6" stroke-opacity="1" stroke="rgb(68,68,68)" fill="rgb(255,255,255)" d="m36.524 94.764l99.1908 32.4707l-1.58996 21.1523v0.003c-36.7454 33.296999-84.5381 51.776-134.125 51.8596l-28.1047-41.0434z" /><path stroke-linecap="butt" stroke-linejoin="round" stroke-width="6" stroke-opacity="1" stroke="rgb(68,68,68)" fill="rgb(255,255,255)" d="m-36.524 94.764l-99.1908 32.4707l1.58996 21.1523v0.003a200.249 200.249 0 0 0 134.125 51.8596v-22.3069z" /><path stroke-linecap="butt" stroke-linejoin="round" stroke-width="6" stroke-opacity="1" stroke="rgb(68,68,68)" fill="rgb(255,255,255)" d="m170.925-103.848001c19.0928 31.2808 29.2355 67.2012 29.3231 103.848c-0.0822 14.2734-1.69045 28.4972-4.79706 42.4287c-6.81929 4.45248-13.1548 8.17234-18.8158 10.9698l-157.457-63.6055z" /><path stroke-linecap="butt" stroke-linejoin="round" stroke-width="6" stroke-opacity="1" stroke="rgb(68,68,68)" fill="rgb(255,255,255)" d="m-170.9254-103.849c-19.0928 31.2808-29.2355 67.2012-29.3231 103.848c0.08225 14.2734 1.69045 28.4972 4.79705 42.4287c6.81929 4.45248 13.1548 8.17234 18.8158 10.9698l157.457-63.6055z" /><path stroke-linecap="butt" stroke-linejoin="round" stroke-width="6" stroke-opacity="1" stroke="rgb(68,68,68)" fill="rgb(255,255,255)" d="m53.555999-192.952c49.0264 13.7033 90.9937 45.5638 117.369 89.1035c-5.70966 7.36491-11.4193 13.0124-17.129 18.0166l-90.838-10.2777l-44.9874-83.6857z" /><path stroke-linecap="butt" stroke-linejoin="round" stroke-width="6" stroke-opacity="1" stroke="rgb(68,68,68)" fill="rgb(255,255,255)" d="m-53.556001-192.9525c-49.0264 13.7033-90.9937 45.5638-117.369 89.1035c5.70963 7.36489 11.4193 13.0124 17.1289 18.0166l90.838-10.2777l44.9874-83.6857z" /><path stroke-linecap="butt" stroke-linejoin="round" stroke-width="6" stroke-opacity="1" stroke="rgb(68,68,68)" fill="rgb(45,41,41)" d="m0-200.2493c-18.9379 0.0373-37.7747 2.76082-55.9475 8.08919c5.63303 5.26064 10.9093 10.5631 15.4625 15.9522l40.4851 18.6696l40.4851-18.6696c4.5532-5.38909 9.82946-10.6916 15.4625-15.9522c-18.1728-5.32836-37.0097-8.05189-55.9475-8.08919z" /><path stroke-linecap="butt" stroke-linejoin="round" stroke-width="6" stroke-opacity="1" stroke="rgb(68,68,68)" fill="rgb(45,41,41)" d="m-60.654 54.252999l-11.9 86.325c22.2616 17.7422 45.5825 32.5743 72.5544 37.363c26.9719-4.7887 50.2929-19.6208 72.5544-37.363l-11.9-86.325z" /><path stroke-linecap="butt" stroke-linejoin="round" stroke-width="6" stroke-opacity="1" stroke="rgb(68,68,68)" fill="rgb(255,255,255)" d="m155.418999-7.946c10.7541 23.5162 17.5776 43.7568 21.2168 61.3439c-7.56266 24.1056-19.1862 48.5496-40.9213 73.8362c-21.0537 8.51661-42.1074 11.9106-63.1611 13.3439c-12.3636-21.2622-22.0134-41.1675-29.6347-60.0586l21.3917-98.6816z" /><path stroke-linecap="butt" stroke-linejoin="round" stroke-width="6" stroke-opacity="1" stroke="rgb(68,68,68)" fill="rgb(255,255,255)" d="m-155.4191-7.946c-10.7541 23.5162-17.5776 43.7568-21.2168 61.3439c7.56266 24.1056 19.1862 48.5496 40.9213 73.8362c21.0537 8.5166 42.1074 11.9106 63.1611 13.3439c12.3636-21.2622 22.0134-41.1675 29.6347-60.0586l-21.3917-98.6816z" /><path stroke-linecap="butt" stroke-linejoin="round" stroke-width="6" stroke-opacity="1" stroke="rgb(68,68,68)" fill="rgb(45,41,41)" d="m82.997-123.891c25.7943 10.4052 57.8178 29.946 70.7988 38.0591c5.39137 30.1196 3.64877 54.1243 1.62263 77.886c-24.5579 6.72627-47.15 10.5038-69.5818 14.0409l-66.048-74.4245z" /><path stroke-linecap="butt" stroke-linejoin="round" stroke-width="6" stroke-opacity="1" stroke="rgb(68,68,68)" fill="rgb(45,41,41)" d="m-82.998-123.892c-25.7943 10.4052-57.8178 29.946-70.7988 38.0591c-5.39136 30.1196-3.64876 54.1243-1.62263 77.886c24.5579 6.7263 47.15 10.5038 69.5818 14.041l66.048-74.4246z" /><path stroke-linecap="butt" stroke-linejoin="round" stroke-width="6" stroke-opacity="1" stroke="rgb(68,68,68)" fill="rgb(255,255,255)" d="m-40.485001-176.2079c-18.373 15.7559-29.4937 33.3483-42.512 52.317l40.0786 55.5615l42.5035 16.6018c0.0206 0.0997 0.0425 0.19959 0.0629 0.29928l0.35201-0.13772l0.35199 0.13772l0.003-0.27546l42.5647-16.6256l40.0787-55.5615c-13.0183-18.9687-24.139-36.5611-42.512-52.317c-8.72908-2.04679-22.5532-4.32122-40.4873-4.32088c-17.9341 0.000342-31.7552 2.27443-40.4828 4.32088z" /><path stroke-linecap="butt" stroke-linejoin="round" stroke-width="6" stroke-opacity="1" stroke="rgb(68,68,68)" fill="rgb(255,255,255)" d="m-42.918001-68.329001c-16.6019 23.2777-29.7967 48.8255-42.9184 74.4233c11.5652 24.6102 24.3073 49.7895 42.9184 74.425c8.006349 1.77919 24.6764 4.00295 42.9184 4.00295c18.2421 0 34.9121-2.22376 42.9184-4.00295c18.6112-24.6355 31.3533-49.8148 42.9185-74.425c-13.1218-25.5978-26.3166-51.1456-42.9185-74.4233h-42.9184z" /></g></svg></svg>